<svg width="82" height="82" viewBox="0 0 82 82" fill="none" xmlns="http://www.w3.org/2000/svg">
<path d="M12.0117 82H38.7578V52.8516H29.1484V43.2422H38.7578V31.2305C38.7578 24.6071 44.1462 19.2188 50.7695 19.2188H62.7812V28.8281H53.1719C50.5224 28.8281 48.3672 30.9834 48.3672 33.6328V43.2422H62.3477L60.7461 52.8516H48.3672V82H69.9883C76.6116 82 82 76.6116 82 69.9883V12.0117C82 5.38838 76.6116 0 69.9883 0H12.0117C5.38838 0 0 5.38838 0 12.0117V69.9883C0 76.6116 5.38838 82 12.0117 82ZM4.80469 12.0117C4.80469 8.03784 8.03784 4.80469 12.0117 4.80469H69.9883C73.9622 4.80469 77.1953 8.03784 77.1953 12.0117V69.9883C77.1953 73.9622 73.9622 77.1953 69.9883 77.1953H53.1719V57.6562H64.8164L68.0195 38.4375H53.1719V33.6328H67.5859V14.4141H50.7695C41.4967 14.4141 33.9531 21.9577 33.9531 31.2305V38.4375H24.3438V57.6562H33.9531V77.1953H12.0117C8.03784 77.1953 4.80469 73.9622 4.80469 69.9883V12.0117Z" fill="#B3B3B3"/>
</svg>
