<svg width="159" height="159" viewBox="0 0 159 159" fill="none" xmlns="http://www.w3.org/2000/svg">
<path d="M159 79.5C159 98.8036 152.118 116.499 140.678 130.271C128.933 144.407 84.2855 132.327 79.5 132.327C74.7114 132.327 30.064 144.407 18.3192 130.268C6.88172 116.495 0 98.8005 0 79.5C0 35.5949 35.5949 0 79.5 0C123.405 0 159 35.5949 159 79.5Z" fill="#57B3FF"/>
<path d="M79.5 132.327C84.2855 132.327 128.933 144.407 140.678 130.271C152.118 116.499 159 98.8036 159 79.5C159 73.9067 158.422 68.4483 157.323 63.1811L104.615 10.4726L44.0877 53.4917L50.562 59.2918C49.6592 60.7389 49.7639 71.454 49.7639 71.454L61.4547 83.1408C62.9786 85.6308 70.0305 86.9547 71.6925 88.5543L53.9426 116.709L18.3192 130.268C30.064 144.407 74.7114 132.327 79.5 132.327Z" fill="#2D79E8"/>
<path d="M63.6342 85.969H95.3658V110.843H63.6342V85.969Z" fill="#FFB578"/>
<path d="M79.5 85.9696H95.3658V110.844H79.5V85.9696Z" fill="#F5A360"/>
<path d="M105.746 151.072H53.2526L63.6341 106.415H95.3658L105.746 151.072Z" fill="white"/>
<path d="M95.3658 106.415L105.747 151.072H79.4997V106.415H95.3658Z" fill="#E0E0E0"/>
<path d="M140.678 130.271C126.094 147.823 104.102 159 79.5 159C54.8954 159 32.9024 147.823 18.3192 130.268L18.5428 122.775C18.8347 113.045 26.9493 105.387 36.6787 105.66L63.6342 106.415L79.5 151.072L95.3658 106.415L122.321 105.66C132.051 105.387 140.165 113.045 140.454 122.775L140.678 130.271Z" fill="#AD5200"/>
<path d="M106.682 52.9218C105.534 36.1132 91.4324 29.9013 79.5 29.9013C67.5675 29.9013 53.4659 36.1132 52.3175 52.9218C49.2319 53.4973 47.0401 57.3993 47.3851 60.5545L47.914 67.7343C48.2761 71.0475 51.2967 73.4664 54.6255 73.1062L55.1997 73.0462C62.0187 90.7002 72.7124 92.5408 79.5003 93.5743C86.2882 92.5408 96.9819 90.7002 103.801 73.0462L104.375 73.1062C107.704 73.4661 110.725 71.0475 111.087 67.7343L111.615 60.5545C111.96 57.3993 109.768 53.497 106.682 52.9218V52.9218Z" fill="#FFD097"/>
<path d="M111.615 60.5542L111.086 67.734C110.724 71.0472 107.704 73.4661 104.374 73.1058L103.8 73.0459C101.47 79.0724 98.6896 83.2582 95.768 86.1951C90.1341 91.8616 83.9712 92.8923 79.4997 93.5743V29.9013C91.4321 29.9013 105.534 36.1132 106.682 52.9218C109.768 53.497 111.96 57.3993 111.615 60.5542V60.5542Z" fill="#FFB578"/>
<path d="M54.3851 10.4726H104.615V42.4747H54.3851V10.4726Z" fill="#3D3D3D"/>
<path d="M79.5 10.4716H104.614V42.4735H79.5V10.4716Z" fill="#2D2D2D"/>
<path d="M44.0877 40.3332H114.912V53.4917H44.0877V40.3332Z" fill="#5E5E5E"/>
<path d="M79.5 40.3338H114.912V53.4917H79.5V40.3338Z" fill="#3D3D3D"/>
<path d="M101.027 143.6L93.1641 141.715L96.2261 152.559L93.5274 157.764C88.9748 158.578 84.2855 159 79.5 159C74.7114 159 70.0252 158.578 65.4726 157.764L62.7739 152.559L65.8359 141.715L57.9729 143.6L44.8492 106.415L63.6342 97.6484L79.5 147.311L95.3658 97.6484L114.151 106.415L101.027 143.6Z" fill="#FFA506"/>
<path d="M140.678 130.271C126.094 147.823 104.102 159 79.5 159V151.072L95.3658 106.415L122.321 105.66C132.051 105.387 140.165 113.045 140.454 122.775L140.678 130.271Z" fill="#7C3B00"/>
<path d="M101.027 143.6L93.1641 141.715L96.2261 152.559L93.5274 157.764C88.9748 158.578 84.2855 159 79.5 159V147.311L95.3658 97.6484L114.151 106.415L101.027 143.6Z" fill="#EA7A00"/>
</svg>
