<svg width="71" height="71" viewBox="0 0 71 71" fill="none" xmlns="http://www.w3.org/2000/svg">
<path d="M50.1992 0H20.8008C9.33123 0 0 9.33123 0 20.8008V50.1992C0 61.6688 9.33123 71 20.8008 71H50.1992C61.6688 71 71 61.6688 71 50.1992V20.8008C71 9.33123 61.6688 0 50.1992 0ZM68.2266 50.1992C68.2266 60.1395 60.1395 68.2266 50.1992 68.2266H20.8008C10.8605 68.2266 2.77344 60.1395 2.77344 50.1992V20.8008C2.77344 10.8605 10.8605 2.77344 20.8008 2.77344H50.1992C60.1395 2.77344 68.2266 10.8605 68.2266 20.8008V50.1992Z" fill="#A7A7A7"/>
<path d="M50.1992 6.10156H20.8008C12.6955 6.10156 6.10156 12.6955 6.10156 20.8008V50.1992C6.10156 58.3045 12.6955 64.8984 20.8008 64.8984H29.2598C30.0257 64.8984 30.6465 64.2776 30.6465 63.5117C30.6465 62.7458 30.0257 62.125 29.2598 62.125H20.8008C14.225 62.125 8.875 56.775 8.875 50.1992V20.8008C8.875 14.225 14.225 8.875 20.8008 8.875H50.1992C56.775 8.875 62.125 14.225 62.125 20.8008V50.1992C62.125 56.775 56.775 62.125 50.1992 62.125H41.8327C41.0668 62.125 40.446 62.7458 40.446 63.5117C40.446 64.2776 41.0668 64.8984 41.8327 64.8984H50.1992C58.3045 64.8984 64.8984 58.3045 64.8984 50.1992V20.8008C64.8984 12.6955 58.3045 6.10156 50.1992 6.10156Z" fill="#A7A7A7"/>
<path d="M36.4804 62.5313C36.2225 62.2734 35.8647 62.125 35.5 62.125C35.1353 62.125 34.7775 62.2734 34.5196 62.5313C34.2617 62.7892 34.1133 63.147 34.1133 63.5117C34.1133 63.8764 34.2617 64.2342 34.5196 64.4921C34.7775 64.7501 35.1353 64.8984 35.5 64.8984C35.8647 64.8984 36.2225 64.7501 36.4804 64.4921C36.7383 64.2342 36.8867 63.8764 36.8867 63.5117C36.8867 63.147 36.7383 62.7892 36.4804 62.5313Z" fill="#A7A7A7"/>
<path d="M24.3827 21.5926C23.8589 21.0338 22.9816 21.0052 22.4226 21.5287L22.3611 21.5865C21.8041 22.1121 21.7786 22.9897 22.3043 23.5468C22.577 23.8359 22.9447 23.9818 23.3131 23.9818C23.6545 23.9818 23.9966 23.8564 24.2645 23.6036L24.3188 23.5527C24.8776 23.0291 24.9063 22.1515 24.3827 21.5926Z" fill="#A7A7A7"/>
<path d="M35.5 16.3633C32.4542 16.3633 29.4228 17.097 26.7336 18.4851C26.0531 18.8364 25.7862 19.6728 26.1374 20.3534C26.4888 21.0339 27.3253 21.3007 28.0058 20.9496C30.3361 19.7466 32.8576 19.1367 35.5 19.1367C44.5227 19.1367 51.8633 26.4773 51.8633 35.5C51.8633 44.5227 44.5227 51.8633 35.5 51.8633C26.4773 51.8633 19.1367 44.5227 19.1367 35.5C19.1367 32.6685 19.871 29.8787 21.2602 27.4323C21.6384 26.7664 21.4051 25.92 20.7391 25.5417C20.073 25.1637 19.2267 25.3968 18.8484 26.0628C17.2226 28.9258 16.3633 32.1892 16.3633 35.5C16.3633 46.052 24.948 54.6367 35.5 54.6367C46.052 54.6367 54.6367 46.052 54.6367 35.5C54.6367 24.948 46.052 16.3633 35.5 16.3633Z" fill="#A7A7A7"/>
<path d="M35.5 23.0195C28.6183 23.0195 23.0195 28.6183 23.0195 35.5C23.0195 42.3817 28.6183 47.9805 35.5 47.9805C42.3817 47.9805 47.9805 42.3817 47.9805 35.5C47.9805 28.6183 42.3817 23.0195 35.5 23.0195ZM35.5 45.207C30.1475 45.207 25.793 40.8525 25.793 35.5C25.793 30.1475 30.1475 25.793 35.5 25.793C40.8525 25.793 45.207 30.1475 45.207 35.5C45.207 40.8525 40.8525 45.207 35.5 45.207Z" fill="#A7A7A7"/>
<path d="M53.7007 12.0298C50.7951 12.0298 48.4312 14.3937 48.4312 17.2993C48.4312 20.2049 50.7951 22.5688 53.7007 22.5688C56.6063 22.5688 58.9702 20.2049 58.9702 17.2993C58.9702 14.3937 56.6063 12.0298 53.7007 12.0298ZM53.7007 19.7954C52.3244 19.7954 51.2046 18.6756 51.2046 17.2993C51.2046 15.923 52.3244 14.8032 53.7007 14.8032C55.077 14.8032 56.1968 15.923 56.1968 17.2993C56.1968 18.6756 55.077 19.7954 53.7007 19.7954Z" fill="#A7A7A7"/>
</svg>
