<svg width="77" height="104" viewBox="0 0 77 104" fill="none" xmlns="http://www.w3.org/2000/svg">
<path d="M38.5 0C17.2713 0 0 16.217 0 36.1499C0 61.2035 38.5379 104 38.5379 104C38.5379 104 77 59.9714 77 36.1499C77 16.217 59.7294 0 38.5 0ZM50.1163 46.7346C46.9132 49.7415 42.7069 51.2453 38.5 51.2453C34.2937 51.2453 30.0861 49.7415 26.8844 46.7346C20.479 40.7208 20.479 30.9353 26.8844 24.9209C29.9861 22.0073 34.1119 20.4026 38.5 20.4026C42.8881 20.4026 47.0133 22.008 50.1163 24.9209C56.5217 30.9353 56.5217 40.7208 50.1163 46.7346Z" fill="#333333"/>
</svg>
