<svg width="113" height="122" viewBox="0 0 113 122" fill="none" xmlns="http://www.w3.org/2000/svg">
<path d="M59.7165 52.3525L57.3473 86.7849L59.7165 121.217H97.6018C106.092 121.217 113 114.31 113 105.819V52.3525H59.7165Z" fill="#2D2D2D"/>
<path d="M6.43268 52.3525V105.819C6.43268 114.31 13.3403 121.217 21.8309 121.217H59.7162V52.3525H6.43268Z" fill="#464646"/>
<path d="M108.25 24.1458L101.817 1.90735e-06L83.4915 5.07668L80.2693 19.5439L80.1487 31.9307L108.25 24.1458Z" fill="#CDCDCD"/>
<path d="M80.1487 31.9307L83.4915 5.07668L59.7165 11.6633L57.3473 26.6612L59.7165 37.5913L80.1487 31.9307Z" fill="#2D2D2D"/>
<path d="M54.0378 39.1643L59.7164 37.5913V11.6633L57.3806 12.3103L54.6267 26.8206L54.0378 39.1643Z" fill="#464646"/>
<path d="M0 28.2067L6.43267 52.3525L27.9269 46.3979L30.8599 32.3517L31.2698 19.5439L0 28.2067Z" fill="#464646"/>
<path d="M57.3806 12.3103L31.2698 19.5439L27.9269 46.3979L54.0378 39.1643L57.3806 12.3103Z" fill="#D7D7D7"/>
<path d="M90.276 80.2702V73.1634H59.7165L57.3473 76.6725L59.7165 80.2702H73.5749V93.2995H59.7165L57.3473 96.9543L59.7165 100.406H90.276V93.2995H80.6817V80.2702H90.276Z" fill="#F7F0EB"/>
<path d="M45.858 93.2995V80.2702H59.7164V73.1634H29.1569V80.2702H38.7512V93.2995H29.1569V100.406H59.7164V93.2995H45.858Z" fill="#FFFBF5"/>
</svg>
