<svg width="66" height="66" viewBox="0 0 66 66" fill="none" xmlns="http://www.w3.org/2000/svg">
<path d="M33 66C24.1854 66 15.8984 62.5674 9.66539 56.3346C3.43264 50.1016 0 41.8146 0 33C0 24.1854 3.43264 15.8984 9.66539 9.66539C15.8984 3.43264 24.1854 0 33 0C41.8146 0 50.1016 3.43264 56.3346 9.66539C62.5674 15.8984 66 24.1854 66 33C66 41.8146 62.5674 50.1016 56.3346 56.3346C50.1016 62.5674 41.8146 66 33 66V66ZM33 5.15625C17.6469 5.15625 5.15625 17.6469 5.15625 33C5.15625 48.3531 17.6469 60.8438 33 60.8438C48.3531 60.8438 60.8438 48.3531 60.8438 33C60.8438 17.6469 48.3531 5.15625 33 5.15625ZM32.8711 35.4492C26.0474 35.4492 20.4961 29.8979 20.4961 23.0742C20.4961 16.2506 26.0474 10.6992 32.8711 10.6992C39.6947 10.6992 45.2461 16.2506 45.2461 23.0742C45.2461 29.8979 39.6947 35.4492 32.8711 35.4492ZM32.8711 15.8555C28.8906 15.8555 25.6523 19.0939 25.6523 23.0742C25.6523 27.0546 28.8906 30.293 32.8711 30.293C36.8516 30.293 40.0898 27.0546 40.0898 23.0742C40.0898 19.0939 36.8516 15.8555 32.8711 15.8555ZM49.2051 50.4632C50.3067 49.561 50.4682 47.9366 49.566 46.835C45.9204 42.3845 40.5338 39.832 34.7873 39.832H31.7283C25.9818 39.832 20.5952 42.3845 16.9498 46.8351C16.0475 47.9366 16.2091 49.561 17.3107 50.4633C18.4122 51.3657 20.0365 51.2039 20.9389 50.1025C23.6008 46.8523 27.5335 44.9883 31.7283 44.9883H34.7873C38.9822 44.9883 42.9148 46.8523 45.5769 50.1024C46.0867 50.7246 46.8266 51.0469 47.5728 51.0469C48.1476 51.0469 48.7259 50.8557 49.2051 50.4632Z" fill="#333333"/>
</svg>
