<svg width="89" height="74" viewBox="0 0 89 74" fill="none" xmlns="http://www.w3.org/2000/svg">
<path d="M24.8054 21.1291L24.8859 21.1661C25.1205 21.2735 25.3665 21.3245 25.6088 21.3245C26.2676 21.3245 26.8979 20.948 27.1905 20.3098C27.5903 19.437 27.207 18.4054 26.3342 18.0054L26.2622 17.9725C25.3905 17.57 24.3578 17.9506 23.9555 18.8224C23.5531 19.694 23.9336 20.7269 24.8054 21.1291Z" fill="#B3B3B3"/>
<path d="M88.5911 9.60482C88.0927 9.01346 87.2639 8.82225 86.5569 9.13583C85.4988 9.60499 84.422 10.018 83.3296 10.3737C84.7455 8.57958 85.846 6.53311 86.5635 4.31924C86.7866 3.6314 86.5604 2.87733 85.9958 2.42573C85.4312 1.97412 84.6457 1.91937 84.0239 2.28771C80.9878 4.08665 77.7244 5.38184 74.3102 6.14425C70.744 2.71706 65.9303 0.768974 60.9519 0.768974C50.323 0.768974 41.676 9.41604 41.676 20.0449C41.676 20.7425 41.714 21.4448 41.7895 22.147C39.0567 21.8868 36.3514 21.3956 33.7211 20.681C32.7947 20.4293 31.8396 20.9763 31.5879 21.9028C31.3362 22.8293 31.8832 23.7843 32.8097 24.036C36.3718 25.0037 40.0608 25.5893 43.7742 25.7764C44.3185 25.8038 44.8407 25.576 45.1908 25.1607C45.5408 24.7454 45.6768 24.1905 45.5581 23.6605C45.289 22.4589 45.1525 21.2422 45.1525 20.0449C45.1525 11.333 52.2402 4.24553 60.9519 4.24553C65.3054 4.24553 69.5039 6.06151 72.4708 9.22779C72.8795 9.66409 73.4837 9.86 74.0709 9.74562C76.4575 9.28185 78.7813 8.5848 81.0209 7.66281C79.7655 9.40544 78.1621 10.888 76.294 12.0063C75.5903 12.4274 75.2767 13.283 75.5415 14.059C75.8062 14.835 76.5769 15.3206 77.3915 15.224C78.997 15.0335 80.5873 14.7362 82.1537 14.3345C80.729 15.8253 79.1659 17.1841 77.4748 18.4002C77.0089 18.7353 76.7383 19.2787 76.7518 19.8523L76.8047 22.1036C76.7937 45.768 58.7804 70.2384 28.6425 70.2384C21.7553 70.2384 15.0071 68.7741 8.80024 65.9633C16.1069 65.411 22.9637 62.7602 28.7781 58.2135C29.3571 57.7607 29.5888 56.9927 29.3566 56.2952C29.1244 55.5978 28.4786 55.1216 27.7437 55.1064C21.9249 54.9848 16.7191 51.7023 14.0598 46.6959C14.2494 46.7011 14.4404 46.7037 14.6325 46.7037C16.3569 46.7037 18.0599 46.4841 19.6942 46.0511C20.475 45.8443 21.0104 45.1271 20.9866 44.3196C20.9628 43.5122 20.386 42.8277 19.5944 42.6672C13.1105 41.3531 8.19654 36.1078 7.13688 29.7304C9.05334 30.431 11.0397 30.8104 13.0717 30.8624C13.8458 30.8808 14.5397 30.3875 14.7735 29.6491C15.0069 28.9107 14.7239 28.1069 14.0794 27.6777C9.67842 24.7478 7.05101 19.8365 7.05101 14.54C7.05101 12.5811 7.41014 10.6533 8.10128 8.85719C10.9352 11.9863 14.1347 14.7545 17.6408 17.1079C18.438 17.6431 19.5178 17.4305 20.0528 16.6335C20.588 15.8365 20.3754 14.7566 19.5784 14.2215C15.6119 11.559 12.0658 8.32718 9.03839 4.61596C8.67856 4.17478 8.12492 3.93855 7.55789 3.98149C6.99035 4.02529 6.48016 4.34409 6.19213 4.83516C4.47975 7.7546 3.57463 11.1105 3.57463 14.5401C3.57463 18.7781 4.95343 22.8137 7.41762 26.0987C6.94863 25.8937 6.48451 25.6648 6.02647 25.4119C5.48795 25.1146 4.83245 25.124 4.30262 25.4365C3.77297 25.7493 3.44791 26.3184 3.44791 26.9335V27.1474C3.44791 33.5785 6.65729 39.4206 11.6734 42.9561C11.663 42.9542 11.6526 42.9523 11.6422 42.9502C11.0398 42.8367 10.4217 43.0484 10.0158 43.5082C9.61011 43.9682 9.47661 44.6077 9.66469 45.1914C11.7042 51.5227 16.8191 56.2515 23.0567 57.9257C17.8963 60.9923 12.0467 62.5954 5.914 62.5954C4.583 62.5954 3.28016 62.5224 1.93074 62.3724C1.1287 62.2832 0.369591 62.7584 0.0999838 63.5196C-0.169797 64.281 0.120496 65.1277 0.80051 65.5635C9.12148 70.8964 18.7491 73.7152 28.6427 73.7152C36.6 73.7152 44.0475 72.1344 50.7779 69.0159C56.952 66.1561 62.4074 62.0687 66.9926 56.8676C75.4377 47.2881 80.2812 34.6094 80.2812 22.0827C80.2812 22.0691 80.281 22.0554 80.2807 22.0419L80.2485 20.6731C83.5594 18.1665 86.4024 15.1477 88.708 11.689C89.1371 11.0457 89.0893 10.1962 88.5911 9.60482Z" fill="#B3B3B3"/>
<path d="M65.4804 42.9824C64.6573 42.4885 63.5894 42.7554 63.0955 43.5786L63.0924 43.5837C62.5984 44.4069 62.8667 45.4721 63.69 45.966C63.9693 46.1337 64.2768 46.2133 64.5809 46.2133C65.1726 46.2133 65.7502 45.911 66.0767 45.3673C66.5705 44.5441 66.3037 43.4762 65.4804 42.9824Z" fill="#B3B3B3"/>
<path d="M62.0884 48.2134C61.3477 47.6029 60.252 47.7082 59.6414 48.4491C56.5985 52.1408 53.001 55.187 48.9489 57.5029C48.1154 57.9794 47.8259 59.0411 48.3022 59.8746C48.6231 60.4361 49.2094 60.7507 49.813 60.7507C50.1054 60.7507 50.4019 60.6768 50.6739 60.5214C55.0926 57.9959 59.0123 54.6782 62.3241 50.6604C62.9347 49.9195 62.8292 48.824 62.0884 48.2134Z" fill="#B3B3B3"/>
</svg>
