<svg width="93" height="60" viewBox="0 0 93 60" fill="none" xmlns="http://www.w3.org/2000/svg">
<path d="M90 0H48L1.63477 32.0888V58.7596H90L93 56.9999V51.4284L91.0474 49.5717V44.3041L93 42.857V34.2856L91.2441 32.6034V27.2147L93 25.714V17.1427L91.2441 15.5899V10.8672L93 8.57144V2.99998C93 1.34305 91.6568 0 90 0V0Z" fill="#E5646E"/>
<path d="M46.5605 8.57144H93V17.1429H46.5605V8.57144Z" fill="#F2F2F6"/>
<path d="M46.5 25.7141L48 34.2856H93V25.7141H46.5Z" fill="#F2F2F6"/>
<path d="M2.99998 48V32.7246L0 34.2856V42.857L1.27148 43.9409V49.5717L0 51.4285V56.9999C0 58.6568 1.34323 59.9999 2.99998 59.9999H90C91.6568 59.9999 93 58.6567 93 56.9999H12.0001C7.02949 56.9999 2.99998 52.9706 2.99998 48Z" fill="#DB4655"/>
<path d="M48 0H2.99998L1.08984 2.99998L2.99998 34.2856H48V0Z" fill="#5055A0"/>
<path d="M2.99998 0C1.34323 0 0 1.34305 0 2.99998V34.2856H2.99998V0Z" fill="#3F3F8F"/>
<path d="M6.01467 6.68764C5.18548 6.68764 4.50742 6.01594 4.50742 5.18766C4.50742 4.35938 5.17095 3.68767 6.00014 3.68767H6.01485C6.84404 3.68767 7.51484 4.35938 7.51484 5.18766C7.51484 6.01594 6.84368 6.68764 6.01467 6.68764Z" fill="white"/>
<path d="M6.01467 18.6877C5.18548 18.6877 4.50742 18.016 4.50742 17.1877C4.50742 16.3595 5.17095 15.6878 6.00014 15.6878H6.01485C6.84404 15.6878 7.51484 16.3595 7.51484 17.1877C7.51484 18.016 6.84368 18.6877 6.01467 18.6877Z" fill="white"/>
<path d="M6.01467 30.6876C5.18548 30.6876 4.50742 30.0159 4.50742 29.1876C4.50742 28.3594 5.17095 27.6877 6.00014 27.6877H6.01485C6.84404 27.6877 7.51484 28.3594 7.51484 29.1876C7.51484 30.0159 6.84368 30.6876 6.01467 30.6876Z" fill="white"/>
<path d="M6.01467 12.6878C5.18548 12.6878 4.50742 12.0161 4.50742 11.1878C4.50742 10.3595 5.17095 9.6878 6.00014 9.6878H6.01485C6.84404 9.6878 7.51484 10.3595 7.51484 11.1878C7.51466 12.0161 6.84368 12.6878 6.01467 12.6878Z" fill="#F2F2F6"/>
<path d="M6.01467 24.6877C5.18548 24.6877 4.50742 24.016 4.50742 23.1877C4.50742 22.3594 5.17095 21.6877 6.00014 21.6877H6.01485C6.84404 21.6877 7.51484 22.3594 7.51484 23.1877C7.51484 24.016 6.84368 24.6877 6.01467 24.6877Z" fill="#F2F2F6"/>
<path d="M42.0146 6.68764C41.1854 6.68764 40.5073 6.01594 40.5073 5.18766C40.5073 4.35938 41.1709 3.68767 42 3.68767H42.0148C42.844 3.68767 43.5147 4.35938 43.5147 5.18766C43.5147 6.01594 42.8438 6.68764 42.0146 6.68764V6.68764Z" fill="white"/>
<path d="M42.0146 18.6877C41.1854 18.6877 40.5073 18.016 40.5073 17.1877C40.5073 16.3595 41.1709 15.6878 42 15.6878H42.0148C42.844 15.6878 43.5147 16.3595 43.5147 17.1877C43.5147 18.016 42.8438 18.6877 42.0146 18.6877V18.6877Z" fill="white"/>
<path d="M42.0146 30.6876C41.1854 30.6876 40.5073 30.0159 40.5073 29.1876C40.5073 28.3594 41.1709 27.6877 42 27.6877H42.0148C42.844 27.6877 43.5147 28.3594 43.5147 29.1876C43.5147 30.0159 42.8438 30.6876 42.0146 30.6876V30.6876Z" fill="white"/>
<path d="M42.0146 12.6878C41.1854 12.6878 40.5073 12.0161 40.5073 11.1878C40.5073 10.3595 41.1709 9.6878 42 9.6878H42.0148C42.844 9.6878 43.5147 10.3595 43.5147 11.1878C43.5147 12.0161 42.8438 12.6878 42.0146 12.6878V12.6878Z" fill="#F2F2F6"/>
<path d="M42.0146 24.6877C41.1854 24.6877 40.5073 24.016 40.5073 23.1877C40.5073 22.3594 41.1709 21.6877 42 21.6877H42.0148C42.844 21.6877 43.5147 22.3594 43.5147 23.1877C43.5147 24.016 42.8438 24.6877 42.0146 24.6877V24.6877Z" fill="#F2F2F6"/>
<path d="M15.0146 6.68764C14.1854 6.68764 13.5074 6.01594 13.5074 5.18766C13.5074 4.35938 14.1709 3.68767 15.0001 3.68767H15.0148C15.844 3.68767 16.5148 4.35938 16.5148 5.18766C16.5148 6.01594 15.8438 6.68764 15.0146 6.68764Z" fill="#F2F2F6"/>
<path d="M15.0146 18.6877C14.1854 18.6877 13.5073 18.016 13.5073 17.1877C13.5073 16.3595 14.1709 15.6878 15.0001 15.6878H15.0148C15.844 15.6878 16.5148 16.3595 16.5148 17.1877C16.5148 18.016 15.8438 18.6877 15.0146 18.6877Z" fill="#F2F2F6"/>
<path d="M15.0146 30.6876C14.1854 30.6876 13.5073 30.0159 13.5073 29.1876C13.5073 28.3594 14.1709 27.6877 15.0001 27.6877H15.0148C15.844 27.6877 16.5148 28.3594 16.5148 29.1876C16.5148 30.0159 15.8438 30.6876 15.0146 30.6876Z" fill="#F2F2F6"/>
<path d="M15.0146 12.6878C14.1854 12.6878 13.5074 12.0161 13.5074 11.1878C13.5074 10.3595 14.1709 9.6878 15.0001 9.6878H15.0148C15.844 9.6878 16.5148 10.3595 16.5148 11.1878C16.5146 12.0161 15.8438 12.6878 15.0146 12.6878Z" fill="white"/>
<path d="M15.0146 24.6877C14.1854 24.6877 13.5074 24.016 13.5074 23.1877C13.5074 22.3594 14.1709 21.6877 15.0001 21.6877H15.0148C15.844 21.6877 16.5148 22.3594 16.5148 23.1877C16.5148 24.016 15.8438 24.6877 15.0146 24.6877Z" fill="white"/>
<path d="M10.5146 9.68762C9.68543 9.68762 9.00737 9.01591 9.00737 8.18763C9.00737 7.35935 9.6709 6.68764 10.5001 6.68764H10.5148C11.344 6.68764 12.0148 7.35935 12.0148 8.18763C12.0146 9.01609 11.3438 9.68762 10.5146 9.68762Z" fill="white"/>
<path d="M10.5146 21.6877C9.68543 21.6877 9.00737 21.016 9.00737 20.1877C9.00737 19.3594 9.6709 18.6877 10.5001 18.6877H10.5148C11.344 18.6877 12.0148 19.3594 12.0148 20.1877C12.0148 21.016 11.3438 21.6877 10.5146 21.6877Z" fill="white"/>
<path d="M10.5146 15.6878C9.68543 15.6878 9.00737 15.0161 9.00737 14.1878C9.00737 13.3595 9.6709 12.6878 10.5001 12.6878H10.5148C11.344 12.6878 12.0148 13.3595 12.0148 14.1878C12.0148 15.0161 11.3438 15.6878 10.5146 15.6878Z" fill="#F2F2F6"/>
<path d="M10.5146 27.6877C9.68543 27.6877 9.00737 27.016 9.00737 26.1877C9.00737 25.3594 9.6709 24.6877 10.5001 24.6877H10.5148C11.344 24.6877 12.0148 25.3594 12.0148 26.1877C12.0148 27.016 11.3438 27.6877 10.5146 27.6877Z" fill="#F2F2F6"/>
<path d="M24.0147 6.68764C23.1855 6.68764 22.5074 6.01594 22.5074 5.18766C22.5074 4.35938 23.171 3.68767 24.0002 3.68767H24.0149C24.8441 3.68767 25.5149 4.35938 25.5149 5.18766C25.5149 6.01594 24.8437 6.68764 24.0147 6.68764V6.68764Z" fill="white"/>
<path d="M24.0147 18.6877C23.1855 18.6877 22.5074 18.016 22.5074 17.1877C22.5074 16.3595 23.171 15.6878 24.0002 15.6878H24.0149C24.8441 15.6878 25.5149 16.3595 25.5149 17.1877C25.5149 18.016 24.8437 18.6877 24.0147 18.6877V18.6877Z" fill="white"/>
<path d="M24.0147 30.6876C23.1855 30.6876 22.5074 30.0159 22.5074 29.1876C22.5074 28.3594 23.171 27.6877 24.0002 27.6877H24.0149C24.8441 27.6877 25.5149 28.3594 25.5149 29.1876C25.5149 30.0159 24.8437 30.6876 24.0147 30.6876V30.6876Z" fill="white"/>
<path d="M24.0147 12.6878C23.1855 12.6878 22.5074 12.0161 22.5074 11.1878C22.5074 10.3595 23.171 9.6878 24.0002 9.6878H24.0149C24.8441 9.6878 25.5149 10.3595 25.5149 11.1878C25.5147 12.0161 24.8437 12.6878 24.0147 12.6878V12.6878Z" fill="#F2F2F6"/>
<path d="M24.0147 24.6877C23.1855 24.6877 22.5074 24.016 22.5074 23.1877C22.5074 22.3594 23.171 21.6877 24.0002 21.6877H24.0149C24.8441 21.6877 25.5149 22.3594 25.5149 23.1877C25.5149 24.016 24.8437 24.6877 24.0147 24.6877V24.6877Z" fill="#F2F2F6"/>
<path d="M19.5145 9.68762C18.6854 9.68762 18.0073 9.01591 18.0073 8.18763C18.0073 7.35935 18.6708 6.68764 19.5 6.68764H19.5147C20.3439 6.68764 21.0147 7.35935 21.0147 8.18763C21.0147 9.01609 20.3437 9.68762 19.5145 9.68762Z" fill="#F2F2F6"/>
<path d="M19.5145 21.6877C18.6854 21.6877 18.0073 21.016 18.0073 20.1877C18.0073 19.3594 18.6708 18.6877 19.5 18.6877H19.5147C20.3439 18.6877 21.0147 19.3594 21.0147 20.1877C21.0147 21.016 20.3437 21.6877 19.5145 21.6877Z" fill="#F2F2F6"/>
<path d="M19.5145 15.6878C18.6854 15.6878 18.0073 15.0161 18.0073 14.1878C18.0073 13.3595 18.6708 12.6878 19.5 12.6878H19.5147C20.3439 12.6878 21.0147 13.3595 21.0147 14.1878C21.0147 15.0161 20.3437 15.6878 19.5145 15.6878Z" fill="white"/>
<path d="M19.5145 27.6877C18.6854 27.6877 18.0073 27.016 18.0073 26.1877C18.0073 25.3594 18.6708 24.6877 19.5 24.6877H19.5147C20.3439 24.6877 21.0147 25.3594 21.0147 26.1877C21.0147 27.016 20.3437 27.6877 19.5145 27.6877Z" fill="white"/>
<path d="M32.9999 6.68764C32.1707 6.68764 31.4927 6.01594 31.4927 5.18766C31.4927 4.35938 32.1562 3.68767 32.9854 3.68767H33.0001C33.8293 3.68767 34.5001 4.35938 34.5001 5.18766C34.5001 6.01594 33.8291 6.68764 32.9999 6.68764V6.68764Z" fill="#F2F2F6"/>
<path d="M32.9999 18.6877C32.1707 18.6877 31.4927 18.016 31.4927 17.1877C31.4927 16.3595 32.1562 15.6878 32.9854 15.6878H33.0001C33.8293 15.6878 34.5001 16.3595 34.5001 17.1877C34.5001 18.016 33.8291 18.6877 32.9999 18.6877V18.6877Z" fill="#F2F2F6"/>
<path d="M32.9999 30.6876C32.1707 30.6876 31.4927 30.0159 31.4927 29.1876C31.4927 28.3594 32.1562 27.6877 32.9854 27.6877H33.0001C33.8293 27.6877 34.5001 28.3594 34.5001 29.1876C34.5001 30.0159 33.8291 30.6876 32.9999 30.6876V30.6876Z" fill="#F2F2F6"/>
<path d="M32.9999 12.6878C32.1707 12.6878 31.4927 12.0161 31.4927 11.1878C31.4927 10.3595 32.1562 9.6878 32.9854 9.6878H33.0001C33.8293 9.6878 34.5001 10.3595 34.5001 11.1878C34.4999 12.0161 33.8291 12.6878 32.9999 12.6878V12.6878Z" fill="white"/>
<path d="M32.9999 24.6877C32.1707 24.6877 31.4927 24.016 31.4927 23.1877C31.4927 22.3594 32.1562 21.6877 32.9854 21.6877H33.0001C33.8293 21.6877 34.5001 22.3594 34.5001 23.1877C34.5001 24.016 33.8291 24.6877 32.9999 24.6877V24.6877Z" fill="white"/>
<path d="M28.5 9.68762C27.6708 9.68762 26.9927 9.01591 26.9927 8.18763C26.9927 7.35935 27.6562 6.68764 28.4854 6.68764H28.5001C29.3293 6.68764 30.0001 7.35935 30.0001 8.18763C29.9999 9.01609 29.3292 9.68762 28.5 9.68762V9.68762Z" fill="white"/>
<path d="M28.5 21.6877C27.6708 21.6877 26.9927 21.016 26.9927 20.1877C26.9927 19.3594 27.6562 18.6877 28.4854 18.6877H28.5001C29.3293 18.6877 30.0001 19.3594 30.0001 20.1877C30.0001 21.016 29.3292 21.6877 28.5 21.6877V21.6877Z" fill="white"/>
<path d="M28.5 15.6878C27.6708 15.6878 26.9927 15.0161 26.9927 14.1878C26.9927 13.3595 27.6562 12.6878 28.4854 12.6878H28.5001C29.3293 12.6878 30.0001 13.3595 30.0001 14.1878C30.0001 15.0161 29.3292 15.6878 28.5 15.6878V15.6878Z" fill="#F2F2F6"/>
<path d="M28.5 27.6877C27.6708 27.6877 26.9927 27.016 26.9927 26.1877C26.9927 25.3594 27.6562 24.6877 28.4854 24.6877H28.5001C29.3293 24.6877 30.0001 25.3594 30.0001 26.1877C30.0001 27.016 29.3292 27.6877 28.5 27.6877V27.6877Z" fill="#F2F2F6"/>
<path d="M37.5146 9.68762C36.6854 9.68762 36.0073 9.01591 36.0073 8.18763C36.0073 7.35935 36.6709 6.68764 37.5001 6.68764H37.5148C38.344 6.68764 39.0148 7.35935 39.0148 8.18763C39.0146 9.01609 38.3438 9.68762 37.5146 9.68762V9.68762Z" fill="#F2F2F6"/>
<path d="M37.5146 21.6877C36.6854 21.6877 36.0073 21.016 36.0073 20.1877C36.0073 19.3594 36.6709 18.6877 37.5001 18.6877H37.5148C38.344 18.6877 39.0148 19.3594 39.0148 20.1877C39.0148 21.016 38.3438 21.6877 37.5146 21.6877V21.6877Z" fill="#F2F2F6"/>
<path d="M37.5146 15.6878C36.6854 15.6878 36.0073 15.0161 36.0073 14.1878C36.0073 13.3595 36.6709 12.6878 37.5001 12.6878H37.5148C38.344 12.6878 39.0148 13.3595 39.0148 14.1878C39.0148 15.0161 38.3438 15.6878 37.5146 15.6878V15.6878Z" fill="white"/>
<path d="M37.5146 27.6877C36.6854 27.6877 36.0073 27.016 36.0073 26.1877C36.0073 25.3594 36.6709 24.6877 37.5001 24.6877H37.5148C38.344 24.6877 39.0148 25.3594 39.0148 26.1877C39.0148 27.016 38.3438 27.6877 37.5146 27.6877V27.6877Z" fill="white"/>
<path d="M0.544922 48.951L3.68004 51.4284H93V42.857H2.99998L0.544922 48.951Z" fill="#F2F2F6"/>
<path d="M0 42.857V51.4284H3.68004C3.24392 50.3713 3.00016 49.2144 3.00016 47.9998V42.8568H0L0 42.857Z" fill="#E1E1E6"/>
</svg>
