<svg width="76" height="76" viewBox="0 0 76 76" fill="none" xmlns="http://www.w3.org/2000/svg">
<path d="M57.5435 68.8767C57.1323 68.168 56.2244 67.9267 55.5148 68.3378L55.4577 68.3708C54.7488 68.7821 54.5075 69.6904 54.9187 70.3995C55.1941 70.874 55.6921 71.1391 56.2039 71.1391C56.4565 71.1391 56.713 71.0743 56.9474 70.9383L57.0045 70.9053C57.7135 70.494 57.9547 69.5857 57.5435 68.8767Z" fill="#A7A7A7"/>
<path d="M70.907 19.0116C65.8331 10.2234 57.6408 3.93728 47.839 1.31085C38.0374 -1.31558 27.7995 0.0323685 19.0113 5.10606C10.2233 10.1798 3.93706 18.3722 1.31078 28.1739C-1.3155 37.9756 0.0323022 48.2137 5.106 57.0017C9.65719 64.8847 16.8908 70.8757 25.4742 73.8708C29.543 75.2905 33.7905 75.999 38.0315 75.999C42.6427 75.999 47.2455 75.1609 51.5963 73.4888C52.3615 73.1947 52.7433 72.336 52.4491 71.5708C52.1549 70.8056 51.296 70.4234 50.5311 70.7181C38.9502 75.1692 26.413 73.1468 17.0462 66.116L18.376 59.1743L19.0168 58.9662C21.4383 58.1795 22.7683 55.5694 21.9818 53.1478L21.5116 51.7007C21.4028 51.3659 21.4034 51.0118 21.5131 50.6773C21.9256 49.4197 21.7782 48.0439 21.1086 46.9021C20.439 45.7605 19.3101 44.96 18.0112 44.706L14.661 44.0514L8.19688 39.1367C7.80961 38.8422 7.3027 38.7562 6.83988 38.9064L3.05535 40.1358C2.97505 38.7822 2.97386 37.4291 3.05016 36.083C3.19948 36.2221 3.29671 36.3167 3.35653 36.3787C3.4306 36.5021 3.52233 36.6152 3.6298 36.7131C3.93884 36.9946 4.21879 37.1222 4.8066 37.1222C5.34676 37.1221 6.14638 37.0145 7.46672 36.8194C8.71893 36.6343 9.9646 36.4258 9.97692 36.4237C10.4761 36.3401 10.8981 36.0076 11.0967 35.5423C11.2953 35.0768 11.2429 34.5423 10.9578 34.124L9.13782 31.4545L11.7447 29.5904C11.9183 29.4662 12.0632 29.306 12.1693 29.1208L16.2102 22.0664L17.839 20.3211C19.5034 18.5372 19.9784 15.9272 19.0489 13.6716C18.5006 12.3411 17.5429 11.2335 16.345 10.487C17.6423 9.46711 19.0256 8.52544 20.4957 7.67683C25.8896 4.56264 31.776 3.05349 37.6004 2.99575L34.95 6.32057L25.1213 9.76621C24.7221 9.90604 24.4015 10.2097 24.2403 10.6007L21.4954 17.2548C21.3005 17.7276 21.3624 18.267 21.6594 18.6832L25.6684 24.2988C25.0942 24.8227 24.5354 25.5856 23.8679 26.533C23.5752 26.9484 23.2988 27.3407 23.1077 27.5607C22.9416 27.7522 22.7754 27.9392 22.6106 28.1245C21.7484 29.0945 20.8568 30.0978 20.2235 31.4379C18.8308 34.3857 19.1121 37.8119 20.9575 40.3795C22.7418 42.8621 25.6835 44.1241 28.8233 43.7548C29.3348 43.6948 29.8117 43.5768 30.2732 43.4625C31.5457 43.1477 31.9489 43.1162 32.3571 43.4983C32.5557 43.6843 32.5739 43.7195 32.5699 44.3502C32.5671 44.7516 32.564 45.2509 32.7023 45.821C32.924 46.7332 33.4968 47.3636 33.9569 47.87C34.1857 48.1216 34.4223 48.382 34.4952 48.5567C34.9581 49.6661 34.7565 50.2805 34.3148 51.6268C34.2769 51.742 34.2384 51.8596 34.1996 51.9801C33.5285 54.0575 34.464 56.118 35.2893 57.9358C35.5574 58.5261 35.8104 59.0834 35.9762 59.5759C37.3108 63.536 38.3113 64.4429 39.1142 64.8081C39.5347 64.9993 39.9699 65.0831 40.4096 65.083C42.5493 65.0828 44.7821 63.0962 45.8078 61.8367C46.452 61.0458 46.6107 60.2539 46.7264 59.6755C46.7842 59.3878 46.8296 59.1607 46.9163 59.0123C47.049 58.7851 47.2053 58.6091 47.4032 58.3861C47.8011 57.938 48.2964 57.3805 48.6172 56.3698C48.8609 55.6021 49.038 55.4139 49.6245 54.7892C49.7266 54.6807 49.8354 54.5647 49.9522 54.4376C51.9293 52.2863 51.4201 50.643 50.8809 48.903C50.4271 47.439 51.2208 46.5027 53.1398 44.7156C53.9716 43.9409 54.8316 43.14 55.4965 42.1775C55.7874 41.7563 56.6725 40.4748 56.1248 39.2046C55.5879 37.9593 54.2233 37.75 53.127 37.5819C52.694 37.5154 52.0397 37.4151 51.8314 37.279C50.9131 36.6786 50.3512 35.4255 49.8078 34.2135C49.6996 33.9723 49.5929 33.7342 49.4847 33.5031C49.2917 33.0907 49.0989 32.5918 48.8948 32.0637C48.3548 30.666 47.7428 29.0818 46.7009 27.9774C45.7644 26.9851 43.9991 26.5071 42.4415 26.0853C41.9177 25.9435 41.4233 25.8096 41.0971 25.6892C40.8239 25.5883 40.5273 25.5701 40.2444 25.6366C39.4863 25.8142 39.0134 26.01 38.6622 26.2915C38.5694 26.3658 38.2947 26.61 38.1338 27.0025C37.5903 26.7417 36.8431 26.2437 36.3833 25.9371C36.3738 25.9308 36.3641 25.9244 36.3546 25.918C36.5096 25.2978 36.3693 24.8001 36.2224 24.4893C35.3932 22.7354 32.6407 22.8727 32.0978 22.9188C31.7893 22.9447 31.3991 22.9585 30.9863 22.973C30.3379 22.996 29.6213 23.0219 28.9122 23.1014L28.9487 22.9996C29.4869 21.4999 30.919 20.4924 32.5123 20.4924H33.3562C34.1757 20.4924 34.8404 19.8277 34.8404 19.0081C34.8404 18.1886 34.1757 17.5239 33.3562 17.5239H32.5123C30.1469 17.5239 27.9807 18.7689 26.7667 20.7284L24.5528 17.6271L26.7309 12.3474L36.3352 8.98024C36.5985 8.88792 36.8306 8.72315 37.0048 8.5048L41.2742 3.14938C52.1834 4.18709 62.4522 10.3036 68.3365 20.4955C69.9038 23.2102 71.0633 26.0682 71.8341 28.9914L71.2049 29.5524C70.3836 30.2853 69.9024 31.3363 69.8839 32.4364C69.8838 32.4484 69.8835 32.4603 69.8831 32.4722L68.858 29.6531C68.7052 29.2324 68.4802 28.8466 68.1895 28.5066L66.361 26.3657C65.652 25.5358 64.6198 25.06 63.5287 25.06H61.2904C60.4958 25.06 59.7697 25.4952 59.3949 26.1954C59.0201 26.8957 59.061 27.7415 59.5017 28.4024L59.7282 28.7424C58.2819 29.9862 56.609 30.9814 54.8278 31.6527L51.7596 25.7756V24.4645C51.7596 24.059 51.5937 23.6708 51.3002 23.391L48.5374 20.7535C48.3849 20.608 48.2032 20.4967 48.0045 20.4267L45.5174 19.5528C44.7436 19.2805 43.8966 19.6877 43.625 20.4609C43.3532 21.2344 43.7598 22.0815 44.5331 22.3533L46.7187 23.1215L48.7912 25.0997V26.1399C48.7912 26.379 48.8491 26.6147 48.9598 26.8269L52.8009 34.1844C53.1463 34.8464 53.9303 35.1489 54.6301 34.8901L55.7485 34.4777C58.3469 33.5194 60.7553 31.9779 62.7134 30.02C63.2137 29.5196 63.2915 28.736 62.8988 28.1472L62.8199 28.0286H63.5287C63.7503 28.0286 63.96 28.1252 64.104 28.2939L65.9326 30.4347C65.9915 30.5038 66.0371 30.5818 66.0682 30.6675L68.0862 36.2165C68.2596 36.6933 68.6645 37.0483 69.1594 37.1582C69.2663 37.1818 69.3739 37.1933 69.4809 37.1933C69.8703 37.1933 70.2492 37.04 70.5304 36.7586L71.4909 35.798C72.0992 35.1896 72.5179 34.4198 72.718 33.5665C74.2036 45.4718 69.5354 57.7872 59.6683 65.5317C59.0233 66.0377 58.9108 66.9707 59.4171 67.6156C59.9231 68.2606 60.8559 68.3731 61.501 67.8668C68.6248 62.2756 73.5187 54.2786 75.2814 45.3489C77.0605 36.333 75.5071 26.9793 70.907 19.0116ZM7.0183 41.9697L13.1388 46.6233C13.3197 46.7609 13.5296 46.855 13.7525 46.8985L17.4415 47.6193C17.9123 47.7114 18.3051 47.9898 18.5478 48.4037C18.7905 48.8174 18.8415 49.2961 18.6922 49.7519C18.3849 50.689 18.3835 51.6801 18.6882 52.6178L19.1584 54.0647C19.4394 54.9295 18.9641 55.8618 18.0995 56.1428L16.6245 56.6221C16.1099 56.7893 15.7272 57.2233 15.6255 57.7544L14.4383 63.9515C11.8284 61.5627 9.53681 58.7394 7.67676 55.5176C5.40747 51.5875 3.98961 47.3955 3.36469 43.1568L7.0183 41.9697ZM15.6687 18.2958L13.9227 20.1665C13.8447 20.2501 13.7766 20.3424 13.7197 20.4416L9.75472 27.3641L6.2307 29.8839C5.57431 30.3533 5.41311 31.2606 5.86762 31.9274L7.18559 33.8607C6.42589 33.9738 5.74412 34.067 5.2908 34.1164C5.20367 34.0328 5.11253 33.9481 5.01827 33.8605C4.66544 33.5328 4.17515 33.095 3.44425 32.4554C4.6497 24.9946 8.24483 17.9658 13.8991 12.6006C14.9817 12.9416 15.8703 13.7492 16.3043 14.8026C16.7927 15.9875 16.543 17.3587 15.6687 18.2958ZM27.7707 26.4068C28.4327 26.0342 29.9693 25.9797 31.0912 25.94C31.5408 25.9241 31.9657 25.9089 32.3451 25.8772C32.5453 25.8604 32.7677 25.8635 32.9774 25.8798C32.8837 26.1203 32.8533 26.3842 32.894 26.6461C32.9654 27.1067 33.2493 27.5067 33.6602 27.7265C33.9387 27.8756 34.3262 28.134 34.7365 28.4076C35.8965 29.1809 37.2115 30.0574 38.4468 30.1361C39.5702 30.209 40.1952 29.5688 40.463 29.2961C40.4844 29.2744 40.5046 29.2528 40.526 29.233C40.6768 29.1101 40.8181 28.9453 40.9232 28.7466C41.1605 28.8144 41.4099 28.882 41.6655 28.9513C42.5444 29.1892 44.1803 29.6322 44.5418 30.0151C45.1837 30.6957 45.6841 31.9911 46.1257 33.1339C46.3488 33.7115 46.5596 34.2565 46.796 34.762C46.8976 34.9788 46.9975 35.2022 47.099 35.4284C47.7839 36.9561 48.5602 38.6878 50.2071 39.7643C50.9539 40.2525 51.8693 40.3927 52.6771 40.5167C52.7748 40.5317 52.8867 40.5489 53.0004 40.5676C52.5209 41.2364 51.8383 41.872 51.117 42.5437C49.2795 44.2549 46.9927 46.3846 48.0459 49.7822C48.543 51.3865 48.5661 51.5599 47.7668 52.4294C47.6579 52.548 47.5563 52.6561 47.4612 52.7573C46.7766 53.4861 46.2359 54.0618 45.7882 55.4719C45.6581 55.8814 45.4897 56.0711 45.1837 56.4155C44.9391 56.691 44.6344 57.0342 44.3534 57.5151C44.0167 58.0914 43.9054 58.6462 43.8162 59.092C43.7282 59.5306 43.6783 59.7507 43.5061 59.9621C43.1141 60.4433 42.3829 61.1422 41.6323 61.6191C40.9346 62.062 40.5273 62.1226 40.3885 62.1143C40.2301 61.9445 39.6564 61.2009 38.7896 58.6281C38.5758 57.9934 38.2792 57.3403 37.9925 56.7087C37.3603 55.3163 36.7067 53.8765 37.0247 52.8925C37.0622 52.7765 37.0993 52.663 37.1358 52.5522C37.6438 51.004 38.1232 49.542 37.235 47.4135C36.9645 46.7652 36.5339 46.2916 36.1544 45.8736C35.9087 45.6033 35.6304 45.2969 35.5875 45.1206C35.5352 44.9055 35.5369 44.6571 35.5388 44.3696C35.5439 43.5941 35.5516 42.4221 34.3865 41.3311C32.7439 39.7936 30.8285 40.2673 29.5608 40.5808C29.1715 40.677 28.8037 40.7681 28.4777 40.8064C26.3925 41.0507 24.5308 40.264 23.3685 38.6467C22.1527 36.9549 21.9762 34.6784 22.9081 32.7057C23.3592 31.7511 24.0406 30.9841 24.8297 30.0965C25.0021 29.9025 25.176 29.7068 25.35 29.5064C25.6395 29.1727 25.958 28.7209 26.2948 28.2425C26.6969 27.6718 27.4456 26.609 27.7707 26.4068Z" fill="#A7A7A7"/>
<path d="M60.8622 51.1031L60.1481 48.4114C59.9921 47.8235 59.4933 47.3904 58.8896 47.3183C58.2852 47.2476 57.699 47.5498 57.4088 48.0843C57.2461 48.3842 57.0996 48.7018 56.958 49.009C56.7198 49.5257 56.4734 50.06 56.217 50.355C56.0731 50.5206 55.7032 50.6992 55.3457 50.8717C54.4912 51.284 53.3208 51.8488 52.8737 53.2741C52.5961 54.1582 52.6997 54.8576 52.7754 55.3683C52.8409 55.811 52.856 55.9645 52.7374 56.243L52.7226 56.2776C52.2501 57.3862 51.371 59.4502 52.6037 61.2049C53.4831 62.4571 54.4079 62.7791 55.1265 62.7791C55.2668 62.7795 55.3995 62.7672 55.5222 62.7472C57.0363 62.4997 58.1745 60.9248 59.1046 57.7904L60.8505 51.9063C60.9281 51.6446 60.9323 51.3667 60.8622 51.1031ZM56.2589 56.946C55.7848 58.544 55.3653 59.2901 55.1232 59.6208C55.0953 59.5852 55.065 59.5448 55.0327 59.4986C54.749 59.0946 55.1729 58.0995 55.4535 57.4409L55.4685 57.4061C55.9209 56.3442 55.7999 55.5287 55.7119 54.9332C55.6554 54.5519 55.6352 54.388 55.706 54.1628C55.7642 53.9777 56.1119 53.7981 56.6359 53.5452C56.8682 53.4329 57.124 53.3096 57.3821 53.1603L56.2589 56.946Z" fill="#A7A7A7"/>
<path d="M40.0823 17.6429L39.9821 17.6079C39.2092 17.3371 38.3617 17.7437 38.0903 18.5172C37.819 19.2909 38.2261 20.1377 38.9996 20.409L39.0997 20.4441C39.2622 20.5011 39.4279 20.5281 39.591 20.5281C40.2038 20.5281 40.7773 20.1455 40.9917 19.5347C41.263 18.7611 40.8558 17.9141 40.0823 17.6429Z" fill="#A7A7A7"/>
</svg>
